# xmcd
#
# Track frame offsets:
# 150
# 13312
# 31862
# 51525
#
# Disc length: 940 seconds
#
#
# Revision: 1
# Processed by: cddbd v1.5.1PL2 Copyright (c) Steve Scherf et al.
# Submitted via: FreeRIP 2.945 
#
DISCID=3003aa04
DTITLE=Etta James -  - Etta James
DYEAR=1988
DGENRE=General Blues
TTITLE0=Etta James - I Got The Will
TTITLE1=Etta James - Jump Into The Fire
TTITLE2=Etta James - Come To Mama
TTITLE3=Etta James - The Jealous Kind
EXTD=
EXTT0=
EXTT1=
EXTT2=
EXTT3=
PLAYORDER=
